<svg width="16" height="17" viewBox="0 0 16 17" fill="none" xmlns="http://www.w3.org/2000/svg">
<path d="M14.4201 11.7302H5.11537L5.58256 10.7786L13.3451 10.7646C13.6076 10.7646 13.8326 10.5771 13.8794 10.3177L14.9544 4.3005C14.9826 4.14269 14.9404 3.98019 14.8372 3.85675C14.7863 3.796 14.7227 3.74707 14.6509 3.71334C14.5792 3.67961 14.5009 3.6619 14.4216 3.66144L4.54662 3.62863L4.46224 3.23175C4.40912 2.97863 4.18099 2.79425 3.92162 2.79425H1.50756C1.36127 2.79425 1.22098 2.85236 1.11754 2.9558C1.0141 3.05924 0.955994 3.19953 0.955994 3.34581C0.955994 3.4921 1.0141 3.63239 1.11754 3.73583C1.22098 3.83926 1.36127 3.89738 1.50756 3.89738H3.47474L3.84349 5.6505L4.75131 10.0458L3.58256 11.9536C3.52186 12.0355 3.4853 12.1328 3.47702 12.2344C3.46874 12.336 3.48906 12.438 3.53568 12.5286C3.62943 12.7146 3.81849 12.8318 4.02787 12.8318H5.00912C4.79993 13.1096 4.68694 13.448 4.68724 13.7958C4.68724 14.6802 5.40599 15.3989 6.29037 15.3989C7.17474 15.3989 7.89349 14.6802 7.89349 13.7958C7.89349 13.4474 7.77787 13.1083 7.57162 12.8318H10.0888C9.87962 13.1096 9.76662 13.448 9.76693 13.7958C9.76693 14.6802 10.4857 15.3989 11.3701 15.3989C12.2544 15.3989 12.9732 14.6802 12.9732 13.7958C12.9732 13.4474 12.8576 13.1083 12.6513 12.8318H14.4216C14.7247 12.8318 14.9732 12.5849 14.9732 12.2802C14.9723 12.1341 14.9136 11.9942 14.81 11.8912C14.7064 11.7881 14.5662 11.7303 14.4201 11.7302V11.7302ZM4.77631 4.71613L13.7732 4.74581L12.8919 9.68019L5.82474 9.69269L4.77631 4.71613ZM6.29037 14.2896C6.01849 14.2896 5.79662 14.0677 5.79662 13.7958C5.79662 13.5239 6.01849 13.3021 6.29037 13.3021C6.56224 13.3021 6.78412 13.5239 6.78412 13.7958C6.78412 13.9268 6.7321 14.0524 6.6395 14.1449C6.54691 14.2375 6.42132 14.2896 6.29037 14.2896V14.2896ZM11.3701 14.2896C11.0982 14.2896 10.8763 14.0677 10.8763 13.7958C10.8763 13.5239 11.0982 13.3021 11.3701 13.3021C11.6419 13.3021 11.8638 13.5239 11.8638 13.7958C11.8638 13.9268 11.8118 14.0524 11.7192 14.1449C11.6266 14.2375 11.501 14.2896 11.3701 14.2896V14.2896Z" fill="white"/>
</svg>
